<svg width="44" height="62" viewBox="0 0 44 62" fill="none" xmlns="http://www.w3.org/2000/svg">
<path d="M43.1667 40.0833C43.1667 52.0158 33.5158 61.6667 21.5833 61.6667C9.65083 61.6667 0 52.0158 0 40.0833C0 31.4808 5.05667 24.05 12.3333 20.5658V9.25C12.3333 7.55417 13.7208 6.16667 15.4167 6.16667H16.9583L13.875 0H29.2917L26.2083 6.16667H27.75C29.4458 6.16667 30.8333 7.55417 30.8333 9.25V20.5658C38.11 24.05 43.1667 31.4808 43.1667 40.0833ZM18.5 12.3333V24.975C15.0178 25.6858 11.8881 27.5779 9.64064 30.3311C7.39317 33.0842 6.16594 36.5293 6.16667 40.0833L6.41333 42.8892L12.3333 36.7842L24.8825 49.3333L36.7842 37.4317C36.2458 34.3799 34.8026 31.5604 32.6418 29.3391C30.481 27.1179 27.7024 25.5974 24.6667 24.975V12.3333H18.5ZM24.8825 30.8333C26.5783 30.8333 27.9658 32.2208 27.9658 33.9167C27.9658 35.6125 26.5783 37 24.8825 37C23.125 37 21.7992 35.6125 21.7992 33.9167C21.7992 32.2208 23.125 30.8333 24.8825 30.8333Z" fill="#7B167D"/>
</svg>
