<svg width="58" height="53" viewBox="0 0 58 53" fill="none" xmlns="http://www.w3.org/2000/svg">
<path d="M56.6095 49.5517L48.2222 41.8884V12.4067L44.2611 5.70921C43.9689 5.19858 43.5305 4.77105 42.9933 4.4728C42.4561 4.17455 41.8404 4.01691 41.2128 4.01691C40.5852 4.01691 39.9695 4.17455 39.4323 4.4728C38.8951 4.77105 38.4567 5.19858 38.1645 5.70921L34.4445 12.4225V29.285L2.94503 0.468375C2.70414 0.245079 2.39638 0.0927927 2.06098 0.0309324C1.72558 -0.0309279 1.37774 0.000440349 1.06181 0.121038C0.74588 0.241635 0.47617 0.445998 0.287068 0.708071C0.0979661 0.970143 -0.0019602 1.27805 2.91348e-05 1.59254V14.3859H3.73725V16.9192H2.91348e-05V27.0525H3.73725V29.5859H2.91348e-05V40.115H3.73725V42.6484H2.91348e-05V50.6759C2.91348e-05 51.0958 0.181477 51.4985 0.504456 51.7955C0.827436 52.0924 1.26549 52.2592 1.72225 52.2592H55.3867C55.7288 52.261 56.0637 52.1692 56.3487 51.9953C56.6338 51.8215 56.8561 51.5735 56.9873 51.2831C57.1184 50.9926 57.1526 50.6728 57.0853 50.3645C57.018 50.0561 56.8523 49.7732 56.6095 49.5517ZM13.7778 39.7192V25.3742L29.3984 39.7192H13.7778ZM44.7778 43.06H37.8889V39.2125H44.7778V43.06ZM44.7778 36.7267H37.8889V13.1984L41.23 7.22921L44.7778 13.2142V36.7267Z" fill="#198ED2"/>
</svg>
