<svg width="54" height="54" viewBox="0 0 54 54" fill="none" xmlns="http://www.w3.org/2000/svg">
<g clip-path="url(#clip0_143_660)">
<path d="M27 0C19.8392 0 12.9716 2.84464 7.90812 7.90812C2.84464 12.9716 0 19.8392 0 27C0 34.1608 2.84464 41.0284 7.90812 46.0919C12.9716 51.1554 19.8392 54 27 54C34.1608 54 41.0284 51.1554 46.0919 46.0919C51.1554 41.0284 54 34.1608 54 27C54 19.8392 51.1554 12.9716 46.0919 7.90812C41.0284 2.84464 34.1608 0 27 0V0ZM16.4767 5.84212C16.5166 6.21409 16.6835 6.56094 16.9492 6.82425C17.1335 7.00827 17.2714 7.23344 17.3516 7.48121C17.4318 7.72898 17.4519 7.99225 17.4104 8.24934C17.3689 8.50642 17.2668 8.74996 17.1127 8.95988C16.9586 9.1698 16.7568 9.34011 16.524 9.45675L15.5419 9.9495C15.3072 10.0662 15.093 10.2201 14.9074 10.4051L13.2874 12.0251C12.8444 12.4684 12.2868 12.7795 11.677 12.9238C11.0672 13.068 10.4293 13.0397 9.83475 12.8419L9.76725 12.8183C9.26536 12.6512 8.73113 12.6049 8.208 12.6832C10.4056 9.80127 13.2342 7.46103 16.4767 5.84212ZM6.35175 38.4919L9.25425 37.7629C9.98471 37.5807 10.6333 37.1595 11.0968 36.5663C11.5604 35.9731 11.8123 35.242 11.8125 34.4891V33.8681C11.8124 33.3126 11.9495 32.7657 12.2114 32.2759C12.4734 31.786 12.8523 31.3684 13.3144 31.0601L13.4494 30.9724C13.8652 30.6953 14.2144 30.3294 14.4716 29.901C14.7289 29.4726 14.8877 28.9924 14.9368 28.4951C14.9859 27.9978 14.924 27.4959 14.7554 27.0254C14.5869 26.555 14.316 26.1279 13.9624 25.7749L10.5334 22.3459C10.2789 22.0967 10.1292 21.7598 10.1149 21.4039C10.1005 21.0481 10.2226 20.7002 10.4561 20.4313C10.6896 20.1625 11.017 19.9929 11.3714 19.9573C11.7257 19.9217 12.0803 20.0228 12.3626 20.2399L16.0414 23.0006C16.2919 23.1881 16.5897 23.3023 16.9014 23.3303C17.2132 23.3583 17.5265 23.2991 17.8065 23.1593C18.0638 23.0303 18.3497 22.9693 18.6372 22.9821C18.9247 22.9948 19.2042 23.0809 19.449 23.2321C19.6939 23.3832 19.896 23.5945 20.0362 23.8458C20.1764 24.0971 20.25 24.3801 20.25 24.6679V26.2035C20.2498 26.7236 20.4036 27.2321 20.6921 27.6649L23.3752 31.6879C23.5408 31.9371 23.6724 32.2072 23.7668 32.4911L26.2305 39.8824C26.455 40.5541 26.8851 41.1381 27.4599 41.5518C28.0348 41.9655 28.7252 42.1879 29.4334 42.1875H29.6291C30.3378 42.1877 31.0285 41.9648 31.6033 41.5504C32.1782 41.1361 32.6081 40.5513 32.832 39.879L35.2957 32.4911C35.3901 32.2072 35.5217 31.9371 35.6873 31.6879L38.3569 27.6817C38.4969 27.4718 38.6867 27.2998 38.9092 27.1809C39.1318 27.0619 39.3803 26.9998 39.6326 27C40.1726 27 40.6654 27.2835 40.9556 27.7358C42.8355 30.6889 46.4569 35.4375 48.9375 35.4375C48.9825 35.4379 49.0275 35.4367 49.0725 35.4341C47.4651 39.6338 44.6931 43.2877 41.0818 45.9671C37.4704 48.6464 33.1697 50.24 28.6844 50.5607C24.1991 50.8813 19.7155 49.9158 15.7597 47.7775C11.8039 45.6392 8.54023 42.4168 6.35175 38.4885V38.4919Z" fill="#007628"/>
</g>
<defs>
<clipPath id="clip0_143_660">
<rect width="54" height="54" fill="white"/>
</clipPath>
</defs>
</svg>
