<svg width="43" height="36" viewBox="0 0 43 36" fill="none" xmlns="http://www.w3.org/2000/svg">
<rect width="43" height="36" fill="#CACEE2" fill-opacity="0.24"/>
<path d="M22 7C24.717 7 25.056 7.01 26.122 7.06C27.187 7.11 27.912 7.277 28.55 7.525C29.21 7.779 29.766 8.123 30.322 8.678C30.8305 9.1779 31.224 9.78259 31.475 10.45C31.722 11.087 31.89 11.813 31.94 12.878C31.987 13.944 32 14.283 32 17C32 19.717 31.99 20.056 31.94 21.122C31.89 22.187 31.722 22.912 31.475 23.55C31.2247 24.2178 30.8311 24.8226 30.322 25.322C29.822 25.8303 29.2173 26.2238 28.55 26.475C27.913 26.722 27.187 26.89 26.122 26.94C25.056 26.987 24.717 27 22 27C19.283 27 18.944 26.99 17.878 26.94C16.813 26.89 16.088 26.722 15.45 26.475C14.7823 26.2245 14.1775 25.8309 13.678 25.322C13.1694 24.8222 12.7759 24.2175 12.525 23.55C12.277 22.913 12.11 22.187 12.06 21.122C12.013 20.056 12 19.717 12 17C12 14.283 12.01 13.944 12.06 12.878C12.11 11.812 12.277 11.088 12.525 10.45C12.7752 9.78218 13.1688 9.17732 13.678 8.678C14.1777 8.16923 14.7824 7.77573 15.45 7.525C16.088 7.277 16.812 7.11 17.878 7.06C18.944 7.013 19.283 7 22 7ZM22 12C20.6739 12 19.4021 12.5268 18.4645 13.4645C17.5268 14.4021 17 15.6739 17 17C17 18.3261 17.5268 19.5979 18.4645 20.5355C19.4021 21.4732 20.6739 22 22 22C23.3261 22 24.5979 21.4732 25.5355 20.5355C26.4732 19.5979 27 18.3261 27 17C27 15.6739 26.4732 14.4021 25.5355 13.4645C24.5979 12.5268 23.3261 12 22 12ZM28.5 11.75C28.5 11.4185 28.3683 11.1005 28.1339 10.8661C27.8995 10.6317 27.5815 10.5 27.25 10.5C26.9185 10.5 26.6005 10.6317 26.3661 10.8661C26.1317 11.1005 26 11.4185 26 11.75C26 12.0815 26.1317 12.3995 26.3661 12.6339C26.6005 12.8683 26.9185 13 27.25 13C27.5815 13 27.8995 12.8683 28.1339 12.6339C28.3683 12.3995 28.5 12.0815 28.5 11.75ZM22 14C22.7956 14 23.5587 14.3161 24.1213 14.8787C24.6839 15.4413 25 16.2044 25 17C25 17.7956 24.6839 18.5587 24.1213 19.1213C23.5587 19.6839 22.7956 20 22 20C21.2044 20 20.4413 19.6839 19.8787 19.1213C19.3161 18.5587 19 17.7956 19 17C19 16.2044 19.3161 15.4413 19.8787 14.8787C20.4413 14.3161 21.2044 14 22 14Z" fill="white"/>
</svg>
