<svg width="43" height="36" viewBox="0 0 43 36" fill="none" xmlns="http://www.w3.org/2000/svg">
<rect width="43" height="36" fill="#CACEE2" fill-opacity="0.24"/>
<path d="M32.4591 12C31.6891 12.35 30.8591 12.58 29.9991 12.69C30.8791 12.16 31.5591 11.32 31.8791 10.31C31.0491 10.81 30.1291 11.16 29.1591 11.36C28.3691 10.5 27.2591 10 25.9991 10C23.6491 10 21.7291 11.92 21.7291 14.29C21.7291 14.63 21.7691 14.96 21.8391 15.27C18.2791 15.09 15.1091 13.38 12.9991 10.79C12.6291 11.42 12.4191 12.16 12.4191 12.94C12.4191 14.43 13.1691 15.75 14.3291 16.5C13.6191 16.5 12.9591 16.3 12.3791 16V16.03C12.3791 18.11 13.8591 19.85 15.8191 20.24C15.1898 20.4122 14.5292 20.4362 13.8891 20.31C14.1607 21.1625 14.6926 21.9084 15.4101 22.4429C16.1276 22.9775 16.9945 23.2737 17.8891 23.29C16.3727 24.4904 14.4931 25.1393 12.5591 25.13C12.2191 25.13 11.8791 25.11 11.5391 25.07C13.4391 26.29 15.6991 27 18.1191 27C25.9991 27 30.3291 20.46 30.3291 14.79C30.3291 14.6 30.3291 14.42 30.3191 14.23C31.1591 13.63 31.8791 12.87 32.4591 12Z" fill="white"/>
</svg>
