<svg width="43" height="36" viewBox="0 0 43 36" fill="none" xmlns="http://www.w3.org/2000/svg">
<rect width="43" height="36" fill="#CACEE2" fill-opacity="0.24"/>
<path d="M30.925 7.5H13.075C12.2 7.5 11.5 8.2 11.5 8.9875V26.925C11.5 27.7125 12.2 28.4125 13.075 28.4125H30.925C31.8 28.4125 32.5 27.7125 32.5 26.925V8.9875C32.5 8.2 31.8 7.5 30.925 7.5ZM17.7125 25.35H14.65V15.375H17.7125V25.35ZM16.225 13.975C15.2625 13.975 14.3875 13.1875 14.3875 12.1375C14.3875 11.0875 15.175 10.3 16.225 10.3C17.1875 10.3 18.0625 11.0875 18.0625 12.1375C18.0625 13.1875 17.1875 13.975 16.225 13.975ZM29.4375 25.2625H26.375V20.3625C26.375 19.225 26.375 17.65 24.7125 17.65C23.05 17.65 22.875 18.9625 22.875 20.1875V25.175H19.8125V15.375H22.7V16.6875H22.7875C23.225 15.9 24.275 15.025 25.7625 15.025C28.9125 15.025 29.525 17.125 29.525 19.8375V25.2625H29.4375Z" fill="white"/>
</svg>
