<svg width="185" height="185" viewBox="0 0 185 185" fill="none" xmlns="http://www.w3.org/2000/svg">
<g clip-path="url(#clip0_143_632)">
<path d="M133.068 83.1863C145.436 100.526 141.415 124.553 124.076 136.921C106.736 149.289 82.7094 145.268 70.3414 127.929C61.4249 115.428 61.0707 99.389 68.0333 86.7838L56.3044 70.3405C54.5467 67.8762 55.1247 64.4219 57.589 62.6641L59.8292 61.0662L48.957 55.3012L71.3593 39.3217L73.2706 51.4785L75.5108 49.8806C77.9751 48.1229 81.4294 48.7009 83.1872 51.1652L94.9161 67.6085C109.101 65.1291 124.151 70.6858 133.068 83.1863ZM68.4612 68.4292L81.5643 86.7991C77.241 91.4413 74.6543 97.4346 74.2421 103.765C73.8299 110.095 75.6175 116.373 79.3023 121.537L82.569 125.358L84.8436 110.351L116.086 115.579L121.045 85.9485C117.099 82.0719 112.08 79.4708 106.638 78.4827C101.195 77.4945 95.5816 78.1651 90.5252 80.4073L77.4221 62.0374L68.4612 68.4292ZM96.911 88.6965C99.3753 86.9387 102.83 87.5168 104.587 89.981C106.345 92.4453 105.767 95.8996 103.303 97.6574C100.749 99.479 97.3842 98.837 95.6265 96.3728C93.8687 93.9085 94.3572 90.5181 96.911 88.6965Z" fill="white"/>
</g>
<defs>
<clipPath id="clip0_143_632">
<rect width="132.083" height="132.083" fill="white" transform="translate(0 76.7012) rotate(-35.5)"/>
</clipPath>
</defs>
</svg>
