<svg width="56" height="47" viewBox="0 0 56 47" fill="none" xmlns="http://www.w3.org/2000/svg">
<path d="M51.1322 39.6601C56.4 33.768 55.8696 26.2015 55.8529 26.1152V3.09939C55.8529 2.33637 55.5588 1.6046 55.0352 1.06506C54.5117 0.525522 53.8016 0.222412 53.0612 0.222412H36.3112C33.232 0.222412 30.7279 2.80306 30.7279 5.97637V26.1152C30.7279 26.8783 31.022 27.61 31.5455 28.1496C32.0691 28.6891 32.7791 28.9922 33.5195 28.9922H42.1123C42.0533 30.4146 41.6409 31.7975 40.9147 33.0085C39.4965 35.3129 36.8249 36.8867 32.9696 37.6807L30.7279 38.141V46.2541H33.5195C41.2887 46.2541 47.2155 44.036 51.1322 39.6601ZM20.4043 39.6601C25.675 33.768 25.1417 26.2015 25.125 26.1152V3.09939C25.125 2.33637 24.8309 1.6046 24.3073 1.06506C23.7838 0.525522 23.0737 0.222412 22.3333 0.222412H5.58333C2.50412 0.222412 0 2.80306 0 5.97637V26.1152C0 26.8783 0.294121 27.61 0.81766 28.1496C1.3412 28.6891 2.05127 28.9922 2.79167 28.9922H11.3844C11.3254 30.4146 10.9131 31.7975 10.1868 33.0085C8.76863 35.3129 6.097 36.8867 2.24171 37.6807L0 38.141V46.2541H2.79167C10.5609 46.2541 16.4876 44.036 20.4043 39.6601Z" fill="#D2D2D2"/>
</svg>
