<svg width="61" height="119" viewBox="0 0 61 119" fill="none" xmlns="http://www.w3.org/2000/svg">
<path d="M15.0801 0L12.9901 9.42717L19.4403 10.8571L1.67569 90.9881C0.289963 97.2387 0.659916 103.61 2.70416 108.7C4.74841 113.79 8.2995 117.183 12.5762 118.131C16.853 119.079 21.505 117.505 25.509 113.756C29.5129 110.006 32.5408 104.389 33.9265 98.1379L51.6911 18.007L58.1413 19.4369L60.2313 10.0098L15.0801 0ZM45.241 16.577L31.6563 77.8536L21.981 75.7087C22.2582 74.4586 22.1842 73.1843 21.7753 72.1663C21.3665 71.1482 20.6563 70.4697 19.8009 70.2801C18.9456 70.0905 18.0152 70.4052 17.2144 71.1551C16.4136 71.905 15.808 73.0286 15.5308 74.2787L12.3058 73.5637L25.8905 12.2871L45.241 16.577Z" fill="white"/>
</svg>
